<svg xmlns="http://www.w3.org/2000/svg" width="1120" height="620" viewBox="0 0 1120 620" role="img" aria-label="Демо-дашборд атрибуции">
  <rect width="1120" height="620" fill="#0f172a"/>
  <rect x="28" y="28" width="1064" height="564" rx="18" fill="#111827" stroke="#334155"/>
  <text x="60" y="78" font-family="Arial, sans-serif" font-size="26" font-weight="700" fill="#f8fafc">Conversion Attribution Monitor</text>
  <text x="60" y="106" font-family="Arial, sans-serif" font-size="14" fill="#94a3b8">demo data · operator view · no client metrics</text>

  <g font-family="Arial, sans-serif">
    <rect x="60" y="140" width="220" height="98" rx="12" fill="#1f2937" stroke="#374151"/>
    <text x="84" y="176" font-size="13" fill="#94a3b8">orders in 24h</text>
    <text x="84" y="214" font-size="34" font-weight="700" fill="#38bdf8">782</text>

    <rect x="312" y="140" width="220" height="98" rx="12" fill="#1f2937" stroke="#374151"/>
    <text x="336" y="176" font-size="13" fill="#94a3b8">checked by algorithm</text>
    <text x="336" y="214" font-size="34" font-weight="700" fill="#34d399">614</text>

    <rect x="564" y="140" width="220" height="98" rx="12" fill="#1f2937" stroke="#374151"/>
    <text x="588" y="176" font-size="13" fill="#94a3b8">pass rate</text>
    <text x="588" y="214" font-size="34" font-weight="700" fill="#facc15">78%</text>

    <rect x="816" y="140" width="220" height="98" rx="12" fill="#1f2937" stroke="#374151"/>
    <text x="840" y="176" font-size="13" fill="#94a3b8">current threshold</text>
    <text x="840" y="214" font-size="34" font-weight="700" fill="#fb7185">0.60</text>

    <rect x="60" y="276" width="626" height="250" rx="12" fill="#1f2937" stroke="#374151"/>
    <text x="84" y="316" font-size="16" font-weight="700" fill="#f8fafc">Recent matchings</text>

    <rect x="84" y="342" width="570" height="40" rx="8" fill="#111827" stroke="#334155"/>
    <text x="106" y="368" font-size="13" fill="#94a3b8">wb-order-demo-001</text>
    <text x="384" y="368" font-size="13" fill="#cbd5e1">matched</text>
    <text x="522" y="368" font-size="13" fill="#34d399">0.94</text>

    <rect x="84" y="392" width="570" height="40" rx="8" fill="#111827" stroke="#334155"/>
    <text x="106" y="418" font-size="13" fill="#94a3b8">ozon-order-demo-002</text>
    <text x="384" y="418" font-size="13" fill="#cbd5e1">matched</text>
    <text x="522" y="418" font-size="13" fill="#34d399">0.89</text>

    <rect x="84" y="442" width="570" height="40" rx="8" fill="#111827" stroke="#334155"/>
    <text x="106" y="468" font-size="13" fill="#94a3b8">wb-order-demo-003</text>
    <text x="384" y="468" font-size="13" fill="#cbd5e1">review</text>
    <text x="522" y="468" font-size="13" fill="#facc15">0.66</text>

    <rect x="720" y="276" width="316" height="250" rx="12" fill="#1f2937" stroke="#374151"/>
    <text x="744" y="316" font-size="16" font-weight="700" fill="#f8fafc">Operator notes</text>
    <text x="744" y="356" font-size="13" fill="#94a3b8">• пересчет через Telegram bot</text>
    <text x="744" y="386" font-size="13" fill="#94a3b8">• данные лежат в PostgreSQL</text>
    <text x="744" y="416" font-size="13" fill="#94a3b8">• Metrika adapter готовит export</text>
    <text x="744" y="446" font-size="13" fill="#94a3b8">• demo only, no secret data</text>
  </g>
</svg>
